<svg width="301" height="71" viewBox="0 0 301 71" fill="none" xmlns="http://www.w3.org/2000/svg">
<g clip-path="url(#clip0_191_1850)">
<path d="M17.9498 71C17.2067 71 16.4635 70.7149 15.8919 70.1446C15.8347 70.0876 15.7775 70.0305 15.7775 69.9735C15.7204 69.9165 15.6632 69.8594 15.606 69.8024L1.14308 55.4313C0.514258 54.804 0.171263 53.9486 0.171263 53.0362C0.171263 52.1237 0.514258 51.2683 1.14308 50.641L16.0062 35.8137L0.971585 20.8723C-0.34323 19.5606 -0.34323 17.4506 0.971585 16.139L15.4345 1.71085C16.0634 1.08354 16.9209 0.741372 17.8355 0.741372C18.7502 0.741372 19.6077 1.08354 20.2365 1.71085L35.0996 16.5382L50.0771 1.53977C51.3919 0.228119 53.507 0.228119 54.8218 1.53977L69.2848 15.9679C70.5996 17.2795 70.5996 19.3896 69.2848 20.7012L54.4217 35.5285L69.4563 50.5269C70.7711 51.8386 70.7711 53.9486 69.4563 55.2603L55.0505 69.6313C54.4217 70.2586 53.5642 70.6008 52.6495 70.6008C51.7349 70.6008 50.8774 70.2586 50.2486 69.6313L35.3854 54.804L20.065 70.1446C19.4933 70.7149 18.693 71 17.9498 71ZM7.08833 53.0932L17.9498 63.9285L40.8162 41.1173C41.3879 40.547 42.131 40.3189 42.8742 40.3189C43.6173 40.3189 44.3605 40.604 44.9321 41.1743C45.2751 41.5165 45.561 41.9727 45.6753 42.4289C45.8468 43.0562 45.8468 43.7406 45.561 44.3679C45.3895 44.7101 45.218 45.0522 44.9321 45.3374L39.5014 50.755L52.5924 63.8145L63.4539 52.9791L40.5875 30.1679C39.4442 29.0273 39.4442 27.1454 40.5875 26.0048C41.7308 24.8643 43.6173 24.8643 44.7606 26.0048L50.1914 31.4225L63.2824 18.3631L52.4209 7.52772L29.5545 30.339C28.4112 31.4795 26.5247 31.4795 25.3814 30.339C24.2381 29.1984 24.2381 27.3165 25.3814 26.1759L30.8122 20.7582L17.7783 7.64177L6.91683 18.4771L29.7832 41.2884C30.9265 42.4289 30.9265 44.3109 29.7832 45.4514C28.6399 46.592 26.7534 46.592 25.6101 45.4514L20.1793 40.0337L7.08833 53.0932ZM19.6077 5.8739C19.5505 5.8739 19.6077 5.8739 19.6077 5.8739V5.8739Z" fill="white"/>
</g>
<path d="M87.8994 58.8638C87.312 58.8638 87 58.5377 87 57.9038V14.2136C87 13.5796 87.3304 13.2535 87.8994 13.2535H94.9478C95.4067 13.2535 95.7921 13.4528 95.9757 13.96L103.868 28.4509C105.612 31.6389 108.329 37.381 109.357 39.6814H109.614C110.641 37.381 113.358 31.6389 115.102 28.4509L122.921 13.96C123.178 13.4528 123.563 13.2535 124.022 13.2535H130.997C131.64 13.2535 131.97 13.5796 131.97 14.2136V57.9219C131.97 58.5559 131.64 58.8819 130.997 58.8819H125.105C124.518 58.8819 124.206 58.5559 124.206 57.9219V45.0974C124.206 39.1018 124.463 31.3129 124.72 25.0637L124.518 24.9912C122.958 28.306 120.829 32.5808 118.699 36.8013L113.009 47.7058C112.807 48.1586 112.422 48.4122 111.908 48.4122H106.989C106.475 48.4122 106.089 48.1586 105.887 47.7058L100.197 36.8013C98.1232 32.5808 95.994 28.306 94.4338 24.9912L94.2319 25.0637C94.4889 31.3129 94.7459 39.1018 94.7459 45.0974V57.9219C94.7459 58.5559 94.4155 58.8819 93.7731 58.8819H87.8994V58.8638Z" fill="white"/>
<path d="M166.735 25.8245C167.322 25.8245 167.708 26.1505 167.708 26.712V55.9294C167.708 56.509 167.451 56.8894 166.992 57.0706C163.302 58.6646 158.842 59.6246 154.327 59.6246C145.535 59.6246 139.514 55.4766 139.514 45.2786V26.712C139.514 26.1324 139.844 25.8245 140.487 25.8245H146.104C146.691 25.8245 147.003 26.1505 147.003 26.712V45.1518C147.003 51.1474 149.72 52.995 154.308 52.995C156.438 52.995 158.714 52.7414 160.2 52.2342V26.712C160.2 26.1324 160.531 25.8245 161.1 25.8245H166.735Z" fill="white"/>
<path d="M185.384 59.6427C178.409 59.6427 174.591 55.0418 174.591 47.271V14.2136C174.591 13.5796 174.921 13.2535 175.564 13.2535H181.125C181.768 13.2535 182.098 13.5796 182.098 14.2136V46.9993C182.098 51.2017 183.456 52.8682 186.356 52.8682C187.127 52.8682 187.972 52.7957 188.816 52.7414C189.459 52.7414 189.789 53.0674 189.789 53.7014V58.4291C189.789 58.9362 189.587 59.3891 189.073 59.4434C187.972 59.5702 186.669 59.6427 185.384 59.6427Z" fill="white"/>
<path d="M206.786 52.8682C207.373 52.8682 208.401 52.7958 209.429 52.7414C210.071 52.7414 210.457 53.0675 210.457 53.629V58.4835C210.457 58.9906 210.2 59.4435 209.557 59.4978C208.456 59.5703 207.098 59.6246 206.125 59.6246C199.407 59.6246 194.157 56.2374 194.157 47.8145V18.6515C194.157 18.0718 194.488 17.7639 195.13 17.7639H200.049C200.563 17.7639 200.949 18.09 201.022 18.5971L201.61 26.2592H208.53C209.117 26.2592 209.502 26.5853 209.502 27.1468V31.802C209.502 32.3817 209.117 32.6896 208.53 32.6896H201.683V47.3073C201.665 50.8395 203.482 52.8682 206.786 52.8682Z" fill="white"/>
<path d="M244.836 25.0637C253.371 25.0637 259.704 29.3929 259.704 39.0294V46.0394C259.704 54.3898 253.628 59.6246 245.423 59.6246C242.835 59.6246 240.504 59.045 238.577 58.2299V70.04C238.577 70.674 238.247 71 237.604 71H232.043C231.4 71 231.07 70.674 231.07 70.04V28.3785C231.07 27.8713 231.272 27.5453 231.786 27.3642C235.585 25.8788 240.633 25.0637 244.836 25.0637ZM252.086 46.1118V38.975C252.086 33.4866 249.315 31.5665 244.653 31.5665C242.45 31.5665 240.119 31.8201 238.577 32.4541V51.3467C240.192 52.4335 242.321 53.1399 244.781 53.1399C249.425 53.1218 252.086 50.8938 252.086 46.1118Z" fill="white"/>
<path d="M220.332 21.8757C217.946 21.8757 216.073 20.0281 216.073 17.6733C216.073 15.2461 217.946 13.5253 220.332 13.5253C222.791 13.5253 224.535 15.2461 224.535 17.6733C224.535 20.01 222.791 21.8757 220.332 21.8757ZM217.487 59.3891C216.899 59.3891 216.514 59.0631 216.514 58.4291V27.2192C216.514 26.6396 216.899 26.3316 217.487 26.3316H223.104C223.691 26.3316 224.003 26.6577 224.003 27.2192V58.411C224.003 59.0449 223.673 59.371 223.104 59.371H217.487V59.3891Z" fill="white"/>
<path d="M275.911 59.6427C268.936 59.6427 265.119 55.0418 265.119 47.271V14.2136C265.119 13.5796 265.449 13.2535 266.091 13.2535H271.653C272.295 13.2535 272.626 13.5796 272.626 14.2136V46.9993C272.626 51.2017 273.984 52.8682 276.884 52.8682C277.655 52.8682 278.499 52.7957 279.344 52.7414C279.986 52.7414 280.317 53.0674 280.317 53.7014V58.4291C280.317 58.9362 280.115 59.3891 279.601 59.4434C278.499 59.5702 277.215 59.6427 275.911 59.6427Z" fill="white"/>
<path d="M288.797 21.3504C286.411 21.3504 284.538 19.5028 284.538 17.148C284.538 14.7208 286.411 13 288.797 13C291.256 13 293 14.7208 293 17.148C293 19.5028 291.256 21.3504 288.797 21.3504ZM285.952 58.8638C285.364 58.8638 284.979 58.5378 284.979 57.9038V26.7121C284.979 26.1324 285.364 25.8245 285.952 25.8245H291.568C292.156 25.8245 292.468 26.1505 292.468 26.7121V57.9219C292.468 58.5559 292.137 58.8819 291.568 58.8819H285.952V58.8638Z" fill="white"/>
<defs>
<clipPath id="clip0_191_1850">
<rect width="71" height="71" fill="white"/>
</clipPath>
</defs>
</svg>
