<?xml version="1.0" encoding="utf-8"?>
<!-- Generator: Adobe Illustrator 25.2.3, SVG Export Plug-In . SVG Version: 6.00 Build 0)  -->
<svg version="1.1" id="Layer_1" xmlns="http://www.w3.org/2000/svg" xmlns:xlink="http://www.w3.org/1999/xlink" x="0px" y="0px"
	 viewBox="0 0 124.2 124.5" style="enable-background:new 0 0 124.2 124.5;" xml:space="preserve">
<style type="text/css">
	.st0{clip-path:url(#SVGID_2_);fill:#FFFFFF;}
	.st1{fill:none;stroke:#FFFFFF;stroke-width:0.54;stroke-miterlimit:10;}
	.st2{fill:#FFFFFF;}
	.st3{fill:none;}
</style>
<path d="M31.4,124.5c-1.3,0-2.6-0.5-3.6-1.5c-0.1-0.1-0.2-0.2-0.2-0.3c-0.1-0.1-0.2-0.2-0.3-0.3L2,97.2c-1.1-1.1-1.7-2.6-1.7-4.2
	c0-1.6,0.6-3.1,1.7-4.2l26-26L1.7,36.6c-2.3-2.3-2.3-6,0-8.3L27,3c1.1-1.1,2.6-1.7,4.2-1.7c1.6,0,3.1,0.6,4.2,1.7l26,26L87.6,2.7
	c2.3-2.3,6-2.3,8.3,0L121.2,28c2.3,2.3,2.3,6,0,8.3l-26,26l26.3,26.3c2.3,2.3,2.3,6,0,8.3l-25.2,25.2c-1.1,1.1-2.6,1.7-4.2,1.7
	c0,0,0,0,0,0c-1.6,0-3.1-0.6-4.2-1.7l-26-26L35.1,123C34.1,124,32.7,124.5,31.4,124.5z M88.9,114.9
	C88.9,114.9,88.9,114.9,88.9,114.9L88.9,114.9z M95.2,114.9L95.2,114.9C95.2,114.9,95.2,114.9,95.2,114.9z M12.4,93.1l19,19l40-40
	c0,0,0,0,0,0c0,0,0,0,0,0c0,0,0,0,0,0c0,0,0,0,0,0c0,0,0,0,0,0c0,0,0,0,0,0c0,0,0,0,0,0c0,0,0,0,0,0c0,0,0,0,0,0c0,0,0,0,0,0
	c1-1,2.3-1.4,3.6-1.4l0,0c1.3,0,2.6,0.5,3.6,1.5c0.6,0.6,1.1,1.4,1.3,2.2c0.3,1.1,0.3,2.3-0.2,3.4c0,0,0,0,0,0l0,0
	c-0.3,0.6-0.6,1.2-1.1,1.7l-9.5,9.5l22.9,22.9l19-19l-40-40c-2-2-2-5.3,0-7.3c2-2,5.3-2,7.3,0l9.5,9.5l22.9-22.9l-19-19l-40,40
	c-2,2-5.3,2-7.3,0c-2-2-2-5.3,0-7.3l9.5-9.5L31.1,13.4l-19,19l40,40c2,2,2,5.3,0,7.3c-2,2-5.3,2-7.3,0l-9.5-9.5L12.4,93.1z
	 M114.2,95.9L114.2,95.9L114.2,95.9z M34.3,10.3L34.3,10.3C34.2,10.3,34.3,10.3,34.3,10.3z"/>
</svg>
